<svg id="Layer_1" data-name="Layer 1" xmlns="http://www.w3.org/2000/svg" viewBox="0 0 746.19 322.96"><defs><style>.cls-1{fill:#010101;stroke:#010101;stroke-miterlimit:10;}</style></defs><title>initium</title><path class="cls-1" d="M745.69,322.46H0.5V0.5H745.69v322Zm-160-74.56,0,0a0.63,0.63,0,0,1,.7-0.85,1.69,1.69,0,0,0,1.62-.89,14.63,14.63,0,0,0,2.32-5.07c0.48-2.41.05-4.86,0.1-7.28,0.1-5.85.34-11.69,0.35-17.55,0-4.8-.38-9.6.07-14.4a4.12,4.12,0,0,0,0-.67c-0.19-2.75.13-5.49,0.12-8.23,0-3.1.37-6.21-.27-9.32-0.44-2.17-.19-4.43-0.53-6.63-0.19-1.26.45-2.46,0.44-3.74-0.06-4.45,0-8.91,0-13.36a6.59,6.59,0,0,1,1.9-4.81c3.25-3.46,6.74-6.64,10.3-9.76,4.71-4.13,9.58-8.07,14.41-12a13.15,13.15,0,0,1,4.74-2.76,2.43,2.43,0,0,1,.29,2,37.58,37.58,0,0,1-1,3.88c-1.24,3.8-2.9,7.46-3.94,11.33-0.6,2.22-1.12,4.46-1.81,6.65a136.8,136.8,0,0,0-3.72,15.34c-1,5.34-1.23,10.76-1.72,16.16-0.69,7.7-1,15.42-1.11,23.14-0.18,8.62.09,17.23,0.7,25.84A89.2,89.2,0,0,0,612,250.77a24.37,24.37,0,0,0,6.33,11.35c2.15,2.16,4.15,4.46,6.35,6.56,5.11,4.88,10.86,8.45,18.26,8.34a1.86,1.86,0,0,1,.85.2,2.91,2.91,0,0,0,2.58-.1,6.61,6.61,0,0,1,1.88-.66,4.48,4.48,0,0,0,3.34-2,1.61,1.61,0,0,1,1.42-.88,1.79,1.79,0,0,0,1.82-1.36,3.93,3.93,0,0,1,1.43-1.9,3.8,3.8,0,0,0,1-1.44c1.13-2,1.19-4.3,2.13-6.28s0.33-3.91.28-5.84a2.81,2.81,0,0,0-1.94-2.26c-1.06-.44-1.33.67-1.79,1.28-1.87,2.49-3.71,5-5.58,7.49-0.83,1.1-1.36,1.2-2.37.31A12,12,0,0,1,644.9,260c1.57-3,1.53-4.29-.15-6.13,1.31-1.76.78-4.29,2.27-5.89,0.72,0,.73.94,1.42,0.64a2.54,2.54,0,0,0-.21-1.73,1.1,1.1,0,0,1,.18-1.43,4.13,4.13,0,0,0,1.17-3,61.18,61.18,0,0,0,.58-8.55c0-1.12.13-2.22,0.07-3.32-0.15-2.71,1.16-5.42,0-8.12a0.92,0.92,0,0,1,0-.44,110.84,110.84,0,0,0,.68-14.35c0-1,.16-1.92.12-2.87-0.09-2.34-.4-4.69-0.36-7,0.07-3.3-.14-6.63.69-9.89a4.71,4.71,0,0,0,.07-1.77c-0.2-1.4,0-2.83-.16-4.19-0.23-2.4-.16-4.93-1.52-7.11a3.34,3.34,0,0,1-.28-2.36c0.34-2.55.9-5.1-.09-7.65a3.83,3.83,0,0,1-.26-2c0.33-1.76.53-3.45-.41-5.1a1.56,1.56,0,0,1,0-.88c0.33-2.75.44-5.46-.94-8a1.58,1.58,0,0,1-.08-0.66,10.17,10.17,0,0,0-1.53-4.82,5.41,5.41,0,0,1-.92-2.71,11.12,11.12,0,0,0-.71-3.23c-0.93-3-2.24-6.1-2.4-9.21a22.68,22.68,0,0,0-1.55-6.94,5.15,5.15,0,0,0-3.08-3.23c-1.91-.76-4-1.08-5.89-1.89a3.74,3.74,0,0,0-3,.14,5.06,5.06,0,0,1-3.25.52c-1.49-.35-2.71.62-4.11,0.7a1.42,1.42,0,0,0-1.2,1.2c-0.22,1.67-1.47,2.27-2.72,3a24.05,24.05,0,0,0-2.64,1.64,55.2,55.2,0,0,0-7.42,6.26,139.42,139.42,0,0,1-13.3,11.79c-1.15.92-2.29,1.89-4,1.7-0.38-1.21,0-2.5-.58-3.7-0.76-1.68-1.28-3.47-2-5.17-0.62-1.56-.68-3.36-2-4.66-1-1-1.8-2.31-2.85-3.37-1.31-1.31-2.93-2.31-4-3.87a5.62,5.62,0,0,0-1.9-1.83c-1.89-1.08-4-1.74-5.59-3.4a0.7,0.7,0,0,0-.2-0.1c-2.88-1.45-6.23.27-7.58,2a4.64,4.64,0,0,1-1.39,1.4c-5.47,3-10.63,6.48-16.14,9.38-6.16,3.25-12,7.06-18,10.63-1.38.83-1.87,0.67-2.45-.88a21.65,21.65,0,0,0-1.18-3.34c-2.39-4.22-5.13-8.17-9-11.07a55.14,55.14,0,0,0-6.38-3.59,0.62,0.62,0,0,0-.43-0.1c-1.24.44-2.28-.2-3.39-0.54-1.42-.44-2.08.07-2.11,1.57a10.89,10.89,0,0,1-.31,2c-0.54,2.76-1.23,5.53-.86,8.37a16.32,16.32,0,0,1-.86,7,130.81,130.81,0,0,0-4,16.21c-1,5.93-1.34,11.94-2,17.91-0.27,2.28-.76,4.54-1,6.83-0.88,8.51-.21,17.08-0.76,25.61-0.42,6.45-.06,12.93.06,19.39,0.14,7.56,1,15,4.34,21.9,1.17,2.44,1.09,4.37-1.09,6.07a4,4,0,0,0-.31.32c-1.32,1.3-1.88,1.33-3.55.66-2.56-1-3.29-3.51-4.39-5.58a23,23,0,0,0-3.34-5.21,2.6,2.6,0,0,1-.87-2,16.88,16.88,0,0,0-.87-5.23c-0.58-2.21-.92-4.5-1.36-6.75a32.36,32.36,0,0,1-.87-7.62,1.58,1.58,0,0,0,0-.22c-0.36-3.44-.84-6.88-1-10.33a73.21,73.21,0,0,0-.72-8.43,50.1,50.1,0,0,1-.85-10.55c0.19-4.94-.52-9.9-0.64-14.86,0-2.09-.81-4-0.67-6.16,0.19-2.71-.2-5.43-0.21-8.15,0-2.5.35-5.22-.83-7.67a1.74,1.74,0,0,1,0-1.31c0.77-2.28.35-4.73,1-7a5.24,5.24,0,0,0,0-2.21,29.46,29.46,0,0,1-.17-8.42,7,7,0,0,0-1-4.91,25,25,0,0,1-2.08-3.4,6,6,0,0,0-3.86-3.4,5.64,5.64,0,0,1-2-1c-1.54-1.35-3.55-1.83-5.18-3a1.52,1.52,0,0,0-2.34,1.34c0.66,3.23-.84,5.94-1.82,8.78-0.61,1.75-1.44,3.44-1.92,5.22-1.6,5.94-3.37,11.83-4.71,17.86-1.44,6.45-2.58,13-3.71,19.46a285.12,285.12,0,0,0-3.07,29.46,98.94,98.94,0,0,0,4.39,37c0.63,2,.53,2.18-1.24,3.47a8.29,8.29,0,0,0-2.63,2.65c-1,1.92-2.49,3.5-3.63,5.32a7.69,7.69,0,0,1-3.2,3c-0.93.43-1.86,0.78-2.89,0-2.56-2.07-4.42-4.54-4.86-7.9a6.07,6.07,0,0,0-1-2.66c-1.35-2-1.15-2.72.94-4a2.2,2.2,0,0,0-.1-1.52,7.26,7.26,0,0,1-.44-4.31,19,19,0,0,0-.44-7.73,2.56,2.56,0,0,1-.1-2,8,8,0,0,0,.5-4.57,23.13,23.13,0,0,1,0-4.21,118.29,118.29,0,0,0,.28-13.8c-0.11-2.67-.59-5.34-0.48-8a68.42,68.42,0,0,0-.49-10.42c-0.23-2.13-.11-4.34-0.91-6.37-0.56-1.42-1.5-2.7-.56-4.29a1.68,1.68,0,0,0-.08-0.65c-0.16-4.47-1.77-8.7-2.13-13.15-0.16-2-.72-3.94-0.72-6a5.9,5.9,0,0,0-.54-2.37c-1.56-3.6-2.66-7.36-3.91-11.07-1.53-4.54-2.45-9.38-6.27-12.8a1.1,1.1,0,0,1-.31-0.58c-0.5-2.6-2.56-3.87-4.47-5.27-2.76-2-6.16-1.95-9.27-2.83a1.15,1.15,0,0,0-1.48,1c-0.17.85-.7,1.62-0.45,2.58a3.49,3.49,0,0,1-.21,2c-1.75,5.2-3,10.53-4.42,15.84a51.23,51.23,0,0,0-1.7,10.29c-0.29,5.56-.31,11.12-1.13,16.66-0.61,4.17-.89,8.41-1.1,12.63-0.26,5.35-.86,10.66-1.47,16-0.72,6.27-1.47,12.55-1.09,18.88,0.23,3.85.66,7.7,1.05,11.54,0.14,1.38,0,2.5-1.44,3.15a5.87,5.87,0,0,0-2.29,2.38c-0.77,1.18-1.42,2.44-2.18,3.62-1.45,2.25-2.53,4.94-5.81,5.16a1.19,1.19,0,0,1-.38-1.72,6.39,6.39,0,0,0-.07-4.15,20.31,20.31,0,0,1-.53-5c-0.1-2.68.44-5.33,0.2-8a35.08,35.08,0,0,1-.16-8.36,7.82,7.82,0,0,0-.22-2.43,28.58,28.58,0,0,1-.52-4.63c0-3-1-6-.39-9-1-1.9-.47-3.87-0.22-5.82a5.9,5.9,0,0,0,0-1.33,34,34,0,0,1,0-6.45,7.92,7.92,0,0,0-.08-2.22c-0.82-4.1-.44-8.27-0.79-12.4a74.44,74.44,0,0,0-1.15-8.1,22.29,22.29,0,0,1-.5-7.91,13.32,13.32,0,0,0,.06-4.22c-0.34-2.12-1-4.17-.92-6.37a5.74,5.74,0,0,0-.69-2.09c-0.21-.55-0.52-1.07-0.72-1.63a27.27,27.27,0,0,0-5.87-9.54c-1.13-1.21-2.8-1.72-3.76-3.06a9.71,9.71,0,0,0-3.24-2.67,59.07,59.07,0,0,0-8.39-3.49,1.51,1.51,0,0,0-.86-0.15,5.94,5.94,0,0,1-3.48-.38,2.2,2.2,0,0,0-2.25.56c-1.25,1.13-2,2.35-1.46,4.12a7.49,7.49,0,0,1,.35,3.3c-0.75,4.69-1.63,9.36-2.29,14.06-0.61,4.33-1.84,8.57-2.41,12.91-0.82,6.18-1.35,12.4-1.89,18.61-0.61,7.11-1.21,14.22-1.61,21.34-0.39,6.9-1.35,13.76-1.43,20.67,0,4.75-.44,9.51.37,14.24a3.86,3.86,0,0,1-.4,2.6,33,33,0,0,0-2.4,4.51,1.73,1.73,0,0,1-1.38,1c-1.75.24-2.27,1.46-2.55,2.93-0.61,3.2-2.12,6.11-3,9.23a3.92,3.92,0,0,1-1.25,2.46,0.92,0.92,0,0,1-.29.06c-3.24-.85-5.63-3.23-8.49-4.77-2.19-1.18-2.22-2.92-.78-5.11a10,10,0,0,1,.76-1.1,2.58,2.58,0,0,0,.59-2.27,5.77,5.77,0,0,1,.69-4.07,6.38,6.38,0,0,0,.61-3c0.11-2.15.12-4.3,0.15-6.45,0-1.78-.42-3.73.16-5.3,0.84-2.24.71-4.51,1.11-6.75,0.2-1.12-.24-2.27.1-3.32,1.15-3.46.4-7.09,0.94-10.61,0.23-1.49.73-3.23-.33-4.75-1.25-1.79,1.21-3.09.69-4.8a1.06,1.06,0,0,1,0-.44,15.19,15.19,0,0,0,.12-5.75,2.56,2.56,0,0,1,.17-1.3,14.3,14.3,0,0,0,.44-4.85,22.57,22.57,0,0,1,.22-4.64,15.55,15.55,0,0,0,.34-4q-0.26-4.89,0-9.78a8,8,0,0,0-.3-3.3,1.62,1.62,0,0,1,.12-1.89c0.81-.71.61-1.59,0.69-2.46,0.18-2.1-.43-4.12-0.54-6.2-0.14-2.5.48-5-.25-7.52a4,4,0,0,1,0-1.33c0.13-1.91.25-3.83,0.43-5.72,0.46-5,0-9.95-.16-14.91-0.07-1.94.41-3.9,0.19-5.75-0.47-3.92-.46-7.84-0.61-11.76a23.43,23.43,0,0,0-.6-5.08,15.21,15.21,0,0,1-.2-6.19,15.49,15.49,0,0,0,0-4.21,12.23,12.23,0,0,1,.11-4.87c4.5-.41,9-0.09,13.4-0.22,2.14-.06,4.36.5,6.43,0.14a25.93,25.93,0,0,1,8.92.33,5.71,5.71,0,0,0,3.25-.43c1.19-.5,1.52-1.24.74-2.26-1.92-2.51-4-4.74-7.65-4.52-8.3.48-16.61,0.55-24.92,0.62-1.1,0-1.94-.17-2.23-1.32-1-3.73-2.38-7.34-2.84-11.18a18.84,18.84,0,0,0-.95-4.55c-0.6-1.59-1-3.24-1.52-4.88a13.7,13.7,0,0,0-5.33-7.15c-2.53-1.91-5.6-2.72-8.62-3.51-1.84-.48-4.66,1.27-4.76,3-0.21,3.61-1.35,7-2.4,10.37-1.87,6-3.63,12.07-5.18,18.18a3.91,3.91,0,0,1-1,2.28,16.71,16.71,0,0,1-1.92-.1c-3.63-.58-7.26-0.09-10.87,0-4.88.19-9.73,1-14.62,1a1.27,1.27,0,0,0-1.06.25c-0.35.88,0.37,1.52,0.63,2.25,0.94,2.6,1,2.66,3.84,2.66,4.37,0,8.73-.16,13.1-0.19,3.07,0,6.15-.28,9.18,0a3.3,3.3,0,0,1,.19,2.48c-1.55,7-2.74,14-4,21a212.79,212.79,0,0,0-3,26.33C273,132.9,272.41,138,271.7,143c-0.51,3.6-1.23,7.17-1.84,10.76-0.88,5.12-1.68,10.26-2.62,15.37a208.14,208.14,0,0,0-2.83,20.74c-0.53,6.52-.74,13.05-1.08,19.58-0.47,8.94-.36,17.82,2,26.54a4.16,4.16,0,0,1-.28,2.79c-2,4.8-5.66,8.32-8.92,12.15a6.3,6.3,0,0,1-1.59,1.21,1.7,1.7,0,0,1-2.54-.45c-1-1.43-1.75-3-.89-4.76a9.82,9.82,0,0,0,.81-4.78,22.39,22.39,0,0,1-.14-4.66,24.52,24.52,0,0,0,.06-7.08,7,7,0,0,1,.18-3.09,13.43,13.43,0,0,0,.48-4.62c0-1.25-.17-2.52.76-3.6a1.58,1.58,0,0,0,.18-1.29,76,76,0,0,1-.5-10.64c0-6.65-.32-13.29-0.32-19.95a66.79,66.79,0,0,0-.81-9.54,35.9,35.9,0,0,1-.3-8c0.39-4.85-.18-9.64-0.48-14.45a3.37,3.37,0,0,0-.27-1.08,99.81,99.81,0,0,1-3.38-9.89c-1.09-3.6-3-7-3.18-10.84a3.62,3.62,0,0,0-.88-2.25c-1.15-1.27-2.08-2.7-3.13-4a8.09,8.09,0,0,0-1.9-1.86c-3.26-2.09-6.9-3.39-10.43-4.92a2.63,2.63,0,0,0-2.07-.16,4.62,4.62,0,0,0-.32,4,9.65,9.65,0,0,1,.16,5.27c-0.25,1.16-.62,2.29-0.86,3.45-0.65,3.12-1.22,6.26-1.9,9.38-1.45,6.68-3.51,13.21-5,19.87a241.14,241.14,0,0,0-4.39,28.39c-0.85,8.94-1.1,17.94-2.11,26.88a22.87,22.87,0,0,1-.49,4.42,18.53,18.53,0,0,0-.91,5.26,26.2,26.2,0,0,1-2.28,9.24c-0.46,1.17-.88,2.36-1.35,3.53a26.67,26.67,0,0,1-5.8,9.38c0-1.81-2.36-.68-2.48-2.63a4,4,0,0,0,3.35-.32c0-1.12-.42-2.2.08-3.17,1.23-2.37,1.21-4.94,1.28-7.48,0.06-1.92,0-3.85,0-5.78,0-3,.24-5.93.37-8.89,0.09-2-.6-3.79-0.85-5.68-0.4-2.9.09-5.78-.13-8.66a23.46,23.46,0,0,1,.14-4,60.49,60.49,0,0,0,.38-8.44c-0.14-3,0-5.92-.14-8.88-0.16-3.85.09-7.72,0-11.57a52.12,52.12,0,0,0-.5-8.41,40.42,40.42,0,0,1-.54-6.58c0-1.93-.2-3.85-0.12-5.79a10.11,10.11,0,0,0-.68-3.93,37.33,37.33,0,0,1-1.17-3.83,19,19,0,0,0-2.87-6,47.63,47.63,0,0,1-3.63-6.37c-1.29-2.72-2.41-5.66-5.56-6.91a1,1,0,0,1-.37-0.25c-2.28-2.62-5.46-3.47-8.65-4.06-2.29-.43-4.67-0.87-7-0.11a7.68,7.68,0,0,1-3.32.09,9.36,9.36,0,0,0-4.77.79A95.62,95.62,0,0,0,153.26,127a48.44,48.44,0,0,0-10.19,7.13c-1.33,1.26-2.26,2.85-3.58,4.36l-3.33-5.71c-3.55-6.11-8.91-9.78-15.62-11.64a13.34,13.34,0,0,0-4.43-.33c-1.49.09-2.89-.6-4.41-0.33-3.49.63-4.12,1.51-2.86,4.79a7.21,7.21,0,0,1,.23,4.35c-1.7,7.6-3.45,15.19-4.45,22.94-0.6,4.64-.75,9.33-1.49,14A96.22,96.22,0,0,0,102,179.62c-0.17,8.17-.2,16.33-0.49,24.5-0.49,14-1.24,28.06-.77,42.1a3.27,3.27,0,0,1-.63,2.07,10.34,10.34,0,0,1-4,3.36,1.85,1.85,0,0,1-1.71.12,12.12,12.12,0,0,1-4.11-3.32,1.92,1.92,0,0,1-.31-1.91,3.33,3.33,0,0,0,.12-2c-1-4.07-.31-8.26-0.92-12.35-0.26-1.7.61-3.18,0.64-4.82A63.8,63.8,0,0,1,91.14,217a14.3,14.3,0,0,0,.2-5.51,9,9,0,0,1,.15-4.4,11.59,11.59,0,0,0,.56-4.4c-0.28-2.75.52-5.47,0.1-8.22a1.77,1.77,0,0,1,.3-1.05,5.88,5.88,0,0,0,.57-2.8c0.26-4.25-.77-8.42-0.69-12.66,0.07-3.79-.41-7.55-0.46-11.34-0.05-4.37.48-8.75-.17-13.12-0.34-2.28-.44-4.59-0.81-6.86-0.84-5.19-1.78-10.33-4.22-15.12-2.17-4.26-5.64-7-9.58-9.29a24.33,24.33,0,0,0-7.56-2.52,8.94,8.94,0,0,0-7,1,5,5,0,0,0-2.62,3.87,28.91,28.91,0,0,1-.56,3.51c-1.17,4.89-3,9.59-4,14.55-0.6,3-1.61,5.86-2.49,8.76A145.29,145.29,0,0,0,48.25,172c-0.75,5-1.32,10-1.79,15-0.73,7.83-1.34,15.68-1.62,23.56a122.16,122.16,0,0,0,2,27.26A36,36,0,0,0,52,251.29a26.86,26.86,0,0,0,12.27,10.3,32.33,32.33,0,0,1,7.7,3.88c2,1.48,4.38,2,6.52-.09a2.6,2.6,0,0,1,1.89-.44,32.81,32.81,0,0,0,4.4-.12c2.25-.44,4.47-1,6.71-1.44a25.58,25.58,0,0,0,10.16-4.08,2.71,2.71,0,0,1,1.68,1.33c1.39,2.25,3.63,3.43,5.82,4.69,1.37,0.79,3,.87,4.34,1.57a10.68,10.68,0,0,0,4.93,1.11,16.54,16.54,0,0,1,2.88.24c0.6-.47.45-1.32,1.36-1.41,1.44,1.5,3.44.48,5.14,1,1.08-1.77,1.08-1.77,3.8-2a15.17,15.17,0,0,0,2.72-5.25,4.14,4.14,0,0,1,2.94-2.79,4.45,4.45,0,0,0,2.41-1.71c1.17-1.52,1.7-3.46,3.25-4.71a2.72,2.72,0,0,0,.49-1.45c0.72-2.43.48-5.18,2.35-7.25a2,2,0,0,0,.29-1.06c0.19-1.9,1.12-3.72.67-5.71a1.4,1.4,0,0,1,.37-1.25,4,4,0,0,0,.83-3.34,36.83,36.83,0,0,1,.83-11.92c1.1-4.16,1-8.42.73-12.61-0.2-3.41-.28-6.83-0.28-10.21,0-2.95-.2-5.9,0-8.86,0.16-2.29-.41-4.59-0.44-6.88-0.06-3.75-2-7.12-2-10.85a2.19,2.19,0,0,0-.21-0.63,18.42,18.42,0,0,1,.1-12.19,40.16,40.16,0,0,1,4.17-8.84c1.36-2.11,2.09-4.57,3.88-6.44s3.63-3.71,5.57-5.45a18.76,18.76,0,0,1,7.16-4.36c3.09-.91,3.7-0.41,3,2.72-1,4.27-2.13,8.5-3.09,12.77-1.18,5.22-2.28,10.45-3.35,15.69-1.44,7.06-3,14.09-3.69,21.28-0.51,5.47-1.07,10.94-1.73,16.4a136.28,136.28,0,0,0-1.4,16,102.93,102.93,0,0,0,1.93,21.49,45.64,45.64,0,0,0,3.6,10,16,16,0,0,0,1.43,2.69c4.53,6.19,10.86,9.67,18.19,11.09a30.75,30.75,0,0,0,12.61.13,17.16,17.16,0,0,0,9-4.6,49.76,49.76,0,0,1,3.91-4,4.67,4.67,0,0,0,1.86-2.94c0.16-1.19.94-1.73,2-2.3a72.6,72.6,0,0,0,4.22,7.88,16,16,0,0,0,8.07,6.71,33.05,33.05,0,0,0,8.39,2.21c2.8,0.27,5.66.75,8.43,0a22.36,22.36,0,0,1,5.93-.6,3.75,3.75,0,0,0,1.74-.23,46,46,0,0,1,5.52-2.13c1.7-.65,3.6-1.11,4.82-2.59a29.13,29.13,0,0,1,6.67-5.5,5,5,0,0,0,2.35-2.86,6.74,6.74,0,0,1,2.26-3.49c0.6,0.57,1.17,1,1.66,1.59,4.31,4.85,9.92,7.49,16,9.17a99,99,0,0,0,13.77,2.63c5.51,0.71,11.05,1.11,16.36-1.21a1.18,1.18,0,0,1,.43-0.1c1.63,0,2.94-.89,4.35-1.55s2.54-1.83,4-2.31c2.14-.69,4.13-1.38,5.71-3.27a7.74,7.74,0,0,0,2-4,5.27,5.27,0,0,1,.8-2.48,1.51,1.51,0,0,1,1.09,1,39.44,39.44,0,0,0,8.42,10.23,21,21,0,0,0,14.78,5.58c2.3,0,4.61,0,6.9.16a3.07,3.07,0,0,0,2.44-.75c1.33-1.17,2.9-2,4.31-3.07,1.23-.93,2.5-2.4,4.48-1.91a1.11,1.11,0,0,0,1.08-.69c1.11-2.21,3-4.13,2.66-6.9a4.71,4.71,0,0,1,.72-3c2.12-3.54,4.36-7,6.6-10.48a1.11,1.11,0,0,1,1.22-.52,14.48,14.48,0,0,1,1.31,2.95,73.79,73.79,0,0,0,8,15.38,27,27,0,0,0,18.63,11.42,12,12,0,0,0,3.53.16c3-.43,6-1,8.94-1.59,1.22-.25,2.53-0.11,3.68-0.76,1.67-.95,3.4-1.79,5-2.81,0.82-.52,1.76-0.83,2.51-1.35,2.08-1.45,4.1-3,6.29-4.25a2.33,2.33,0,0,0,.45-0.51c1.33,0.19,2.72.46,3.78-.65,0.9-1,1.72-2,2.65-3.09a10.59,10.59,0,0,1,2.8,3.79c2.73,5.26,7,8.71,12.3,11.11a18.41,18.41,0,0,0,5.57,1.4c2.65,0.31,5.31,0,8,.38a10,10,0,0,0,5.52-.93,9.1,9.1,0,0,1,3-.92,3.67,3.67,0,0,0,1.3-.3,51,51,0,0,0,7-4.74c0.76-.55,1.09-1.68,1.59-2.5a1.89,1.89,0,0,1,1.3,1.27c2.89,4.87,7.48,6.4,12.78,6.58a1.67,1.67,0,0,0,1.67-.92,2.37,2.37,0,0,1,2.48-1.45c1,0,1.53-.87,2.39-1,0.24,0.11.45,0.18,0.64,0.29,1.85,1.08,1.8,1,3.41-.37a10.08,10.08,0,0,0,3-5.33c0.76-2.92,1.89-5.82,1.75-8.91a4.27,4.27,0,0,1,.88-2.91,12.41,12.41,0,0,0,2.64-6.46c0.23-2.2,1-4.32.87-6.57-0.12-3.19-.24-6.38-0.13-9.57a44.65,44.65,0,0,0,.18-5.11c-0.33-4.06-.91-8.11-0.62-12.21,0.25-3.5-.44-7-0.61-10.43A96.46,96.46,0,0,0,532.57,182c-0.71-3.73-1.48-7.44-1.29-11.22a108.94,108.94,0,0,0,.27-10.9,3.42,3.42,0,0,1,.51-2.14,40.73,40.73,0,0,1,2.68-3.82,64,64,0,0,1,14.16-12.64,19.66,19.66,0,0,0,3.34-2.11c2.34-2.3,5.38-3.64,7.66-6a2.25,2.25,0,0,1,1.86-.62,3.28,3.28,0,0,1-.21,2.78c-1.07,2.84-2.31,5.62-3.26,8.5-1.53,4.64-2.81,9.37-4.33,14a94.65,94.65,0,0,0-3.82,17.59A164.57,164.57,0,0,0,549,197c0,7.5-.38,15-0.14,22.5,0.2,6.24.41,12.45,2,18.56a46.54,46.54,0,0,0,9.23,17.58,13.84,13.84,0,0,0,5.92,4.21,6.09,6.09,0,0,1,2.08,1.13c1.07,1,5.33,1,6.4.16a1,1,0,0,0,.4-0.51c0.2-1.13,1.14-1.54,2-2,1.91-1,2.85-3,4.64-4.17a1.2,1.2,0,0,0,.35-1.62c-0.41-.47-1.2.43-1.54-0.43s0.65-1.26.73-2c-0.58-1-1.8-2-.78-3.45,1,0.49,1.35,1.55,2.52,1.82C583.46,247.78,584.6,247.92,585.68,247.9ZM707,185.8c-0.1-1.75,0-3.34-.87-4.58a17.36,17.36,0,0,0-6.37-6c-2-1-4-1.79-6.12-2.59a4.94,4.94,0,0,0-3.24-.34c-4.17,1.26-7.78,3.3-9.54,7.6a38.51,38.51,0,0,0-1.8,4.78c-1.42,5.42-1.11,10.47,3.67,14.32a2.09,2.09,0,0,1,.83,1.73c0,2.13.3,4.29-.74,6.32a6.4,6.4,0,0,0-.62,2.13c-0.34,2.88-1.71,5.52-1.91,8.43a5.79,5.79,0,0,1-.51,1.7c-1.36,3.36-2.74,6.7-4.1,10.06a10.93,10.93,0,0,1-3.43,4.85,3.83,3.83,0,0,0-1.56,3.43,3.34,3.34,0,0,1-.3,2.12c-1,1.54-.33,2.86,1.52,3.08a5.7,5.7,0,0,0,3.26-.38c1.41-.71,3.24-0.56,4.26-2.1a1.64,1.64,0,0,1,1-.34,5.69,5.69,0,0,0,2.18-1c3.17-1.92,5.5-4.76,8.06-7.33a11.71,11.71,0,0,1,.9-1,67.4,67.4,0,0,0,8.09-8.3,1.58,1.58,0,0,0,.5-1c-0.13-1.28.75-2,1.42-2.89a26,26,0,0,0,1.52-2.41c0.6-1,.61-2.11,1.23-3a32.47,32.47,0,0,0,1.85-4c0.57-1.14,0-2.39.7-3.37,1-1.5,1.06-3.18,1.23-4.86a17,17,0,0,0-.43-6.16,16.07,16.07,0,0,1-.81-5C707,188.34,706.8,186.93,707,185.8Zm-29.77-42.36a12.28,12.28,0,0,0,7.7,10.75,7.42,7.42,0,0,0,6.58-.42,48.83,48.83,0,0,0,8-5,11.23,11.23,0,0,0,3.77-4.45c0.73-1.76,1.83-3.49,1.5-5.49a14.32,14.32,0,0,0-5.54-9.07,26.42,26.42,0,0,0-5.79-3.25c-1.57-.69-3.36-1.42-4.89-1.07a8.74,8.74,0,0,0-5.19,3.07c-3.07,3.92-4.38,8.54-5.91,13.09A8.61,8.61,0,0,0,677.21,143.44Zm-611.55-53c0.16,3.12.25,6.29,2.88,8.73a5.76,5.76,0,0,0,6.87,1.06c2.32-1.32,4.65-2.64,6.87-4.11a19.53,19.53,0,0,0,4.48-3.57,10.9,10.9,0,0,0,2.82-7.76c-0.12-1.77-.3-3.55-0.34-5.32a5.59,5.59,0,0,0-2-4.27,6.24,6.24,0,0,0-5.59-1.49c-1.87.35-3.69,0.9-5.64,0.1a3.62,3.62,0,0,0-3,.28c-2.8,1.6-5,3.72-5.46,7.14a9,9,0,0,1-.56,2.6C65.93,85.93,65.91,88.16,65.66,90.45ZM347,99.5a12,12,0,0,0,.48,3.52c0.6,2.14,1.74,3.74,4,4.29a1.73,1.73,0,0,1,1.33.72c0.61,1.17,1.67,1.1,2.71.94,2.93-.45,5.6-1.76,8.35-2.78,1.5-.55,2.78-1.67,4.52-1.66a2.24,2.24,0,0,0,1.8-1.17,4.55,4.55,0,0,1,1.88-1.79,3.46,3.46,0,0,0,2.09-2.67,7.39,7.39,0,0,0-.15-5.08,7.06,7.06,0,0,0-3.47-4,10.61,10.61,0,0,1-1.28-.87,22.88,22.88,0,0,0-3.75-2.71,10.38,10.38,0,0,0-11.43,1.45c-1,.83-2,1.69-3.06,2.54C348.16,92.67,347.1,95.86,347,99.5ZM238.12,85.26v0.07c-0.89,0-1.78,0-2.67,0a3,3,0,0,0-2.53,1.18,33,33,0,0,1-2.65,2.69,9.07,9.07,0,0,0-2.53,4.13,40.66,40.66,0,0,0-1.65,9.61,10.48,10.48,0,0,0,0,1.33c0.31,2.66,1.77,3.85,4.43,3.86,0.9,0,1.66-.48,2.6-0.37,4.45,0.49,8.51-.9,12.33-3A17.1,17.1,0,0,0,251.54,99a4.26,4.26,0,0,0,.5-4,11.81,11.81,0,0,0-4-5.77,13.53,13.53,0,0,1-2.12-1.61,7.62,7.62,0,0,0-5.79-2.35C239.46,85.25,238.79,85.26,238.12,85.26Z"/><path class="cls-1" d="M585.65,247.94l0,0Z"/><path class="cls-1" d="M527.34,157.06a1.26,1.26,0,0,1,0-1.43c0.72,0,.6.43,0.63,0.75A0.62,0.62,0,0,1,527.34,157.06Z"/><path class="cls-1" d="M368.59,240.29c-0.58-.51-0.78-0.9-0.41-1.43C368.88,239.11,368.81,239.59,368.59,240.29Z"/></svg>